# xmcd
#
# Track frame offsets:
#	150
#	12681
#	27080
#	39723
#	57999
#	70893
#	91324
#	104806
#	116666
#	127089
#	148723
#	166859
#	179767
#	198154
#	208968
#	225585
#
# Disc length: 3177 seconds
#
# Revision: 3
# Processed by: cddbd v1.5.2PL0 Copyright (c) Steve Scherf et al.
# Submitted via: audiograbber 1.83.01
#
DISCID=f30c6710
DTITLE=Jonny Hill - Jonny Hill
DYEAR=2006
DGENRE=
TTITLE0=Fünfhundert Meilen von Zuhause
TTITLE1=In dem kleinen Haus am See
TTITLE2=Kann Liebe alles verzeih´n
TTITLE3=Wann wird´s mal wieder richtig Sommer
TTITLE4=Es sind nur Erinnerungen
TTITLE5=Der Feigling
TTITLE6=Ruby, mach´s mir doch nicht so schwer
TTITLE7=Mehr hinterm Lenkrad als zu Haus
TTITLE8=König der Landstraße
TTITLE9=Ruf Teddybär eins-vier
TTITLE10=Sylvia´s Mutter
TTITLE11=Und überhaupt, mein bester Freund
TTITLE12=Wieder mal auf Tournee
TTITLE13=Adios Amigo
TTITLE14=Rosen für Mama
TTITLE15=Mein Lied für dich (Annie´s Song)
EXTD=
EXTT0=
EXTT1=
EXTT2=
EXTT3=
EXTT4=
EXTT5=
EXTT6=
EXTT7=
EXTT8=
EXTT9=
EXTT10=
EXTT11=
EXTT12=
EXTT13=
EXTT14=
EXTT15=
PLAYORDER=
